<?xml version="1.0" standalone="no"?>
<!DOCTYPE svg PUBLIC "-//W3C//DTD SVG 20010904//EN"
 "http://www.w3.org/TR/2001/REC-SVG-20010904/DTD/svg10.dtd">
<svg version="1.0" xmlns="http://www.w3.org/2000/svg"
 width="353.000000pt" height="353.000000pt" viewBox="0 0 353.000000 353.000000"
 preserveAspectRatio="xMidYMid meet">
<metadata>
Created by potrace 1.14, written by Peter Selinger 2001-2017
</metadata>
<g transform="translate(0.000000,353.000000) scale(0.100000,-0.100000)"
fill="#000000" stroke="none">
<path d="M0 1765 l0 -1765 1765 0 1765 0 0 1765 0 1765 -1765 0 -1765 0 0
-1765z m2630 780 l0 -130 -795 0 -795 0 0 130 0 130 795 0 795 0 0 -130z m290
-670 l0 -130 -450 3 -450 4 0 -44 c0 -177 -69 -475 -145 -630 -64 -130 -166
-253 -302 -365 -88 -73 -213 -153 -239 -153 -9 0 -68 39 -131 86 l-116 86 79
42 c279 146 451 351 518 617 25 98 46 243 46 317 l0 44 -500 -4 -500 -3 0 130
0 130 1095 0 1095 0 0 -130z"/>
</g>
</svg>
